<?xml version="1.0" standalone="no"?>
<!DOCTYPE svg PUBLIC "-//W3C//DTD SVG 20010904//EN"
 "http://www.w3.org/TR/2001/REC-SVG-20010904/DTD/svg10.dtd">
<svg version="1.0" xmlns="http://www.w3.org/2000/svg"
 width="800.000000pt" height="1000.000000pt" viewBox="0 0 800.000000 1000.000000"
 preserveAspectRatio="xMidYMid meet">
<metadata>
Created by potrace 1.13, written by Peter Selinger 2001-2015
</metadata>
<g transform="translate(0.000000,1000.000000) scale(0.100000,-0.100000)"
fill="#999999">
<path d="M490 9983 c-41 -6 -135 -42 -187 -70 -77 -43 -185 -158 -227 -244
-73 -151 -67 271 -64 -4707 l3 -4477 27 -75 c34 -91 104 -196 172 -256 75 -66
195 -122 286 -134 112 -14 6963 -13 7032 1 29 6 87 27 128 46 99 47 222 168
268 263 67 139 62 -182 62 3768 l0 3583 -707 -1 c-766 -2 -794 0 -941 52 -272
96 -474 297 -582 580 -51 134 -52 149 -50 941 l1 737 -2598 -1 c-1429 -1
-2609 -4 -2623 -6z m6524 -3924 c55 -15 141 -103 156 -160 34 -124 -23 -254
-135 -305 l-50 -24 -2982 0 c-2069 0 -2990 3 -3010 11 -46 17 -102 60 -123 95
-93 150 -34 329 127 383 44 15 308 16 3013 13 2027 -2 2977 -6 3004 -13z m-6
-1070 c61 -17 125 -77 152 -144 55 -135 -12 -281 -149 -330 -39 -13 -382 -15
-3015 -15 -2966 0 -2971 0 -3016 21 -140 63 -196 218 -125 348 34 62 77 98
143 120 42 14 341 16 3007 14 2169 -2 2971 -6 3003 -14z m-2 -1068 c22 -6 61
-28 86 -50 154 -136 93 -389 -105 -431 -38 -8 -872 -10 -3017 -8 l-2965 3 -41
22 c-61 33 -109 92 -129 158 -20 69 -14 120 23 189 30 55 71 90 135 114 41 16
257 17 3008 15 1977 -1 2978 -5 3005 -12z m20 -1061 c96 -41 154 -127 154
-231 0 -101 -80 -214 -169 -239 -54 -15 -5967 -14 -6012 1 -146 49 -214 212
-146 352 34 68 76 103 152 125 52 16 285 17 3014 15 l2957 -2 50 -21z m-1786
-1061 c127 -55 184 -215 120 -339 -25 -48 -76 -95 -130 -119 -45 -21 -54 -21
-2120 -21 -1308 0 -2088 4 -2110 10 -81 23 -138 84 -166 180 -38 128 45 270
178 304 32 8 617 10 2111 9 l2067 -2 50 -22z"/>
<path d="M5950 9270 c0 -638 1 -679 20 -755 71 -288 312 -523 595 -579 69 -14
167 -16 743 -14 l662 3 -1010 1010 -1010 1010 0 -675z"/>
</g>
</svg>
